<svg xmlns="http://www.w3.org/2000/svg" viewBox="0 0 1235 650">
  <rect width="1235" height="650" fill="#fff"/>
  <g fill="#bd3d44">
    <rect width="1235" height="50" y="0"/>
    <rect width="1235" height="50" y="100"/>
    <rect width="1235" height="50" y="200"/>
    <rect width="1235" height="50" y="300"/>
    <rect width="1235" height="50" y="400"/>
    <rect width="1235" height="50" y="500"/>
    <rect width="1235" height="50" y="600"/>
  </g>
  <rect width="494" height="350" fill="#192f5d"/>
  <g fill="#fff">
    <circle cx="45" cy="30" r="15"/>
    <circle cx="120" cy="30" r="15"/>
    <circle cx="195" cy="30" r="15"/>
    <circle cx="270" cy="30" r="15"/>
    <circle cx="345" cy="30" r="15"/>
    <circle cx="420" cy="30" r="15"/>
    
    <circle cx="80" cy="75" r="15"/>
    <circle cx="155" cy="75" r="15"/>
    <circle cx="230" cy="75" r="15"/>
    <circle cx="305" cy="75" r="15"/>
    <circle cx="380" cy="75" r="15"/>
    <circle cx="455" cy="75" r="15"/>
    
    <circle cx="45" cy="120" r="15"/>
    <circle cx="120" cy="120" r="15"/>
    <circle cx="195" cy="120" r="15"/>
    <circle cx="270" cy="120" r="15"/>
    <circle cx="345" cy="120" r="15"/>
    <circle cx="420" cy="120" r="15"/>
    
    <circle cx="80" cy="165" r="15"/>
    <circle cx="155" cy="165" r="15"/>
    <circle cx="230" cy="165" r="15"/>
    <circle cx="305" cy="165" r="15"/>
    <circle cx="380" cy="165" r="15"/>
    <circle cx="455" cy="165" r="15"/>
    
    <circle cx="45" cy="210" r="15"/>
    <circle cx="120" cy="210" r="15"/>
    <circle cx="195" cy="210" r="15"/>
    <circle cx="270" cy="210" r="15"/>
    <circle cx="345" cy="210" r="15"/>
    <circle cx="420" cy="210" r="15"/>
    
    <circle cx="80" cy="255" r="15"/>
    <circle cx="155" cy="255" r="15"/>
    <circle cx="230" cy="255" r="15"/>
    <circle cx="305" cy="255" r="15"/>
    <circle cx="380" cy="255" r="15"/>
    <circle cx="455" cy="255" r="15"/>
    
    <circle cx="45" cy="300" r="15"/>
    <circle cx="120" cy="300" r="15"/>
    <circle cx="195" cy="300" r="15"/>
    <circle cx="270" cy="300" r="15"/>
    <circle cx="345" cy="300" r="15"/>
    <circle cx="420" cy="300" r="15"/>
  </g>
</svg> 
